<svg id="Group_39634" data-name="Group 39634" xmlns="http://www.w3.org/2000/svg" width="31.688" height="31.688" viewBox="0 0 31.688 31.688">
  <path id="Path_167361" data-name="Path 167361" d="M15.844,0A15.844,15.844,0,1,1,0,15.844,15.844,15.844,0,0,1,15.844,0Z" fill="#04509c"/>
  <g id="Group_80599" data-name="Group 80599" transform="translate(12.616 9.562)">
    <path id="Path_98615" data-name="Path 98615" d="M2197.758-62.459c0,.567.005,1.133-.005,1.7,0,.164.058.194.208.193.773-.006,1.547,0,2.321,0,.07,0,.139.006.234.01-.036.293-.068.566-.1.839-.078.6-.162,1.19-.237,1.786-.033.266-.026.268-.3.268-.636,0-1.271,0-1.907,0-.166,0-.213.051-.212.212q.006,3.285,0,6.569v.009H2194.8c0-.008,0-.016,0-.024q0-3.267,0-6.533c0-.229,0-.23-.243-.23h-1.889c-.077,0-.154-.007-.243-.012,0-.062-.011-.113-.011-.164,0-.844,0-1.688,0-2.532,0-.161.052-.2.206-.2.666.007,1.331,0,2,.006.153,0,.192-.049.191-.193-.006-.69-.005-1.381,0-2.072a3.2,3.2,0,0,1,.64-2,3.184,3.184,0,0,1,2.542-1.292c.8-.023,1.607,0,2.411-.008.133,0,.176.044.175.174q-.007,1.133,0,2.266c0,.134-.043.17-.176.169-.522-.006-1.044-.005-1.565,0a1,1,0,0,0-1.043.752A1.293,1.293,0,0,0,2197.758-62.459Z" transform="translate(-2192.412 66.137)" fill="#fff"/>
  </g>
</svg>
