<svg id="Group_80600" data-name="Group 80600" xmlns="http://www.w3.org/2000/svg" width="31.688" height="31.688" viewBox="0 0 31.688 31.688">
  <path id="Path_167361" data-name="Path 167361" d="M15.844,0A15.844,15.844,0,1,1,0,15.844,15.844,15.844,0,0,1,15.844,0Z" transform="translate(0)" fill="#e73c2f"/>
  <g id="Group_80601" data-name="Group 80601" transform="translate(8.471 8.278)">
    <path id="Path_41621" data-name="Path 41621" d="M-156.2,1913.166a.127.127,0,0,1,.019-.045,7.535,7.535,0,0,1,.9-1.372,7.544,7.544,0,0,1,1.623-1.479,7.463,7.463,0,0,1,2.1-.984,7.424,7.424,0,0,1,.807-.185c.142-.024.286-.043.429-.06a7.563,7.563,0,0,1,.844-.047q.181,0,.363.008c.13.006.259.015.389.028s.269.029.4.049q.242.035.48.088a7.153,7.153,0,0,1,1.268.4,7.2,7.2,0,0,1,1.783,1.091c.1.086.206.176.306.268l.024.023a.015.015,0,0,1,0,.023l-.038.04-2,2.015-.091.091a.187.187,0,0,1-.046-.039,4.039,4.039,0,0,0-1.031-.7,4.032,4.032,0,0,0-.925-.305,4.5,4.5,0,0,0-.511-.072,4.205,4.205,0,0,0-.571-.011,4.317,4.317,0,0,0-2.591,1.014,4.583,4.583,0,0,0-1.418,2.047c-.006.017-.014.034-.021.051a.187.187,0,0,1-.024-.013c-.1-.075-.192.255-.289.179-.161-.126-.371-.053-.532-.179l-.512-.4c-.16-.125-.313-.313-.473-.438s-.281-.34-.441-.464C-156.078,1913.706-156.273,1913.345-156.2,1913.166Z" transform="translate(156.999 -1908.995)" fill="#fff"/>
    <path id="Path_41622" data-name="Path 41622" d="M-154.172,2665.22c.007.017.015.034.021.051a4.614,4.614,0,0,0,1.259,1.911,4.4,4.4,0,0,0,1.644.955,4.146,4.146,0,0,0,.689.158,4.348,4.348,0,0,0,.811.04c.134-.006.267-.014.4-.028a4.764,4.764,0,0,0,.839-.167,4.063,4.063,0,0,0,1.1-.507.08.08,0,0,1,.034-.018s.862-.2.867-.193c.176.137.3.005.478.143.206.161.292.188.5.349.172.134.4-.134.572,0,.217.168.245.458.461.627.031.025-.486.934-.461.967a2.244,2.244,0,0,1-.179.162,6.675,6.675,0,0,1-2.317,1.289,7.421,7.421,0,0,1-.979.244c-.191.034-.383.062-.576.083-.169.018-.339.03-.509.039-.216.011-.432.011-.648.007-.157,0-.315-.015-.471-.029q-.309-.028-.615-.082a7.265,7.265,0,0,1-.906-.22,7.457,7.457,0,0,1-2.624-1.443,7.557,7.557,0,0,1-1.849-2.331.184.184,0,0,1-.028-.065c.038-.023-.306-1.065-.271-1.092.205-.16.592-.174.8-.333.282-.22.532-.168.813-.388.208-.163.256-.357.464-.519C-154.761,2664.749-154.538,2664.971-154.172,2665.22Z" transform="translate(157.471 -2656.2)" fill="#fff"/>
    <path id="Path_41623" data-name="Path 41623" d="M412.747,2436.729a.478.478,0,0,0-.092-.078c-.216-.17-.432-.338-.649-.507l-.516-.4-.619-.483-.528-.412a.1.1,0,0,1-.012-.012.09.09,0,0,1,.029-.024,3.635,3.635,0,0,0,.574-.494,3.491,3.491,0,0,0,.5-.681,3.591,3.591,0,0,0,.381-1.032c0-.019.007-.04.009-.058s-.021-.009-.031-.01h-3.952c-.09,0-.078.011-.078-.08q0-1.376,0-2.753c0-.019,0-.037,0-.055s.006-.024.027-.025h7c.066,0,.068,0,.078.065.017.116.035.232.049.348s.028.25.04.376c.006.056.009.113.012.17.015.247.016.494.015.742,0,.143-.007.286-.016.428s-.022.288-.038.432a8.3,8.3,0,0,1-.157.936,7.457,7.457,0,0,1-.657,1.806,6.712,6.712,0,0,1-.778,1.176,6.542,6.542,0,0,1-.528.567C412.791,2436.691,412.769,2436.709,412.747,2436.729Z" transform="translate(-400.241 -2423.422)" fill="#fff"/>
    <path id="Path_41624" data-name="Path 41624" d="M-220.276,2263.969l-.3.235-.624.487-.845.659-.616.48a1.078,1.078,0,0,1-.105.079.1.1,0,0,1-.023-.037,7.53,7.53,0,0,1-.517-1.364,7.534,7.534,0,0,1-.162-.74q-.037-.222-.06-.446c-.015-.147-.026-.3-.034-.443-.012-.214-.011-.429,0-.643,0-.139.014-.278.027-.416.015-.164.035-.328.06-.49a7.44,7.44,0,0,1,.155-.741,7.539,7.539,0,0,1,.525-1.412.2.2,0,0,1,.032-.057l.321.249.481.374.479.376.416.323.484.379.291.225a.144.144,0,0,0,.024.013.19.19,0,0,1-.016.058,4.611,4.611,0,0,0-.169.719,4.605,4.605,0,0,0-.046.864,4.417,4.417,0,0,0,.062.583,4.706,4.706,0,0,0,.163.659A.209.209,0,0,1-220.276,2263.969Z" transform="translate(223.574 -2254.948)" fill="#fff"/>
  </g>
</svg>
