<svg id="car" xmlns="http://www.w3.org/2000/svg" xmlns:xlink="http://www.w3.org/1999/xlink" width="285.341" height="164.498" viewBox="0 0 285.341 164.498">
  <defs>
    <clipPath id="clip-path">
      <rect id="Rectangle_27198" data-name="Rectangle 27198" width="285.341" height="164.498" fill="none"/>
    </clipPath>
    <clipPath id="clip-path-3">
      <rect id="Rectangle_27196" data-name="Rectangle 27196" width="279.429" height="12.824" fill="none"/>
    </clipPath>
  </defs>
  <g id="Group_84552" data-name="Group 84552" clip-path="url(#clip-path)">
    <g id="Group_84551" data-name="Group 84551">
      <g id="Group_84550" data-name="Group 84550" clip-path="url(#clip-path)">
        <g id="Group_84549" data-name="Group 84549" transform="translate(1.143 151.674)" style="mix-blend-mode: multiply;isolation: isolate">
          <g id="Group_84548" data-name="Group 84548">
            <g id="Mask_Group_84547" data-name="Mask Group 84547" clip-path="url(#clip-path-3)">
              <path id="Path_172219" data-name="Path 172219" d="M6.017,197.765c0,3.542,62.553,6.412,139.715,6.412s139.714-2.871,139.714-6.412-62.552-6.412-139.714-6.412S6.017,194.223,6.017,197.765" transform="translate(-6.017 -191.353)" fill="#e5e5e5"/>
            </g>
          </g>
        </g>
        <path id="Path_172220" data-name="Path 172220" d="M2.572,88.393c5.3,2.082,5.868,16.844-1.135,16.087" transform="translate(277.582 -18.329)" fill="#fff"/>
        <path id="Path_172221" data-name="Path 172221" d="M2.524,87c2.915,1.2,4.23,4.47,4.674,7.392.462,3.05.291,6.74-1.8,9.2a5.006,5.006,0,0,1-4.306,1.726c-1.443-.136-1.457-2.409,0-2.272a2.746,2.746,0,0,0,2.5-.842,6.054,6.054,0,0,0,1.332-2.963,12.625,12.625,0,0,0-.851-7.555,7.148,7.148,0,0,0-.984-1.574c-.108-.12-.218-.236-.335-.347-.052-.048-.315-.27-.219-.2a3.544,3.544,0,0,0-.332-.22c-.056-.033-.427-.218-.282-.159a1.173,1.173,0,0,1-.793-1.4A1.141,1.141,0,0,1,2.524,87" transform="translate(277.932 -18.027)" fill="#4a4a4a"/>
        <path id="Path_172222" data-name="Path 172222" d="M7.686,89.09c3.217-3.406,6.057-3.6,10.6-3.406v20.441s-7.932-.192-11.16-3.788" transform="translate(261.407 -17.757)" fill="#ccc"/>
        <path id="Path_172223" data-name="Path 172223" d="M6.567,87.989a11.673,11.673,0,0,1,5.187-3.312,19.956,19.956,0,0,1,6.215-.428A1.156,1.156,0,0,1,19.1,85.385v20.441a1.149,1.149,0,0,1-1.136,1.135c-4.047-.106-9.1-1.038-11.962-4.119-.994-1.069.608-2.679,1.607-1.607,2.448,2.633,6.9,3.364,10.356,3.455l-1.136,1.136V85.385l1.136,1.136a18.781,18.781,0,0,0-5.377.284A9.362,9.362,0,0,0,8.172,89.6c-1.015,1.055-2.62-.552-1.606-1.606" transform="translate(261.724 -17.459)" fill="#4a4a4a"/>
        <path id="Path_172224" data-name="Path 172224" d="M273.565,124.224c3.029-12.113,2.93-44.416,2.162-55.645-.7-10.221-27.175-12.8-41.256-14.007a190.429,190.429,0,0,0-27.317,0L166.647,5.322s-52.8-8.495-108.021-.378c0,0-42.8,47.513-42.844,53.67-.137,19.528-3.094,40.627,1.135,61.446,1.889,9.3,256.648,4.164,256.648,4.164" transform="translate(-2.453 -0.297)" fill="#e5e5e5"/>
        <path id="Path_172225" data-name="Path 172225" d="M272.141,123.625c1.722-6.984,1.964-14.407,2.261-21.561q.521-12.5.217-25.018a82.406,82.406,0,0,0-.373-8.95c-.331-2.475-2.474-4.173-4.494-5.349A37.912,37.912,0,0,0,259.8,59.07a112.919,112.919,0,0,0-12.2-2.246,197.4,197.4,0,0,0-27.81-1.913c-3.936.027-7.875.157-11.8.417-1,.067-1.664.109-2.322-.692L187.911,33.059,167.329,8.033c-.464-.564-1.483-1.4-1.726-2.1-.117-.339.634.079.262.162a3.879,3.879,0,0,1-1.09-.164c-4.412-.644-8.955-1.156-13.466-1.6a417.1,417.1,0,0,0-58.928-1.7q-9.289.4-18.549,1.276-4.7.451-9.394,1.038-1.384.175-2.766.361a11.02,11.02,0,0,1-2.049.286c.613.04-1.034.115-.54-.127-.025.013-.036.052-.059.067a10.772,10.772,0,0,0-1.783,1.993q-1.884,2.11-3.759,4.231c-8.193,9.267-16.305,18.617-24.1,28.225-3.435,4.235-6.864,8.51-9.922,13.03a28.971,28.971,0,0,0-2.586,4.36c.012-.027-.1.268-.193.521-.031.088-.051.18-.075.269-.1.361-.007-.1-.018.078-.17,2.7-.093,5.426-.19,8.128-.445,12.371-1.389,24.751-.694,37.133.174,3.1.445,6.187.853,9.26q.313,2.36.74,4.7c.121.666.308,1.347.388,2.019.021.176-.076-.015-.074-.159,0,.162.067.14-.056-.045.031.047.136.168.19.181-.233-.054-.193-.113.028,0,.1.052.206.109.307.164.266.147.2.086.115.055.142.054.284.108.427.158.337.116.681.214,1.026.3.881.232,1.777.407,2.674.563,2.561.446,4.832.69,7.58.95,7.947.753,15.933,1.115,23.908,1.419,10.7.408,21.4.639,32.1.8q18.567.284,37.135.315,19.473.058,38.945-.046,18.766-.089,37.532-.283,16.449-.166,32.9-.4,12.52-.175,25.039-.385,6.991-.119,13.982-.251l1.794-.035a1.137,1.137,0,0,1,0,2.272q-2.827.057-5.654.107-7.772.144-15.544.268-11.658.19-23.315.347-14.48.2-28.961.343-16.242.165-32.486.258-16.944.1-33.888.091-16.585-.008-33.169-.157-15.165-.146-30.327-.488c-8.457-.2-16.914-.468-25.362-.9-6.1-.312-12.21-.672-18.276-1.4-2.018-.24-4.042-.507-6.031-.931a11.842,11.842,0,0,1-3.55-1.161,2.682,2.682,0,0,1-1.012-.958c-.653-1.169-.643-2.882-.853-4.172q-.655-4.01-1.022-8.061c-.99-10.72-.563-21.5-.071-32.231.238-5.195.491-10.391.578-15.591a9.555,9.555,0,0,1,.793-4.568,56.17,56.17,0,0,1,5.97-8.932c6.694-8.883,13.937-17.36,21.2-25.777,4.914-5.693,9.786-11.472,14.925-16.966a3.807,3.807,0,0,1,.307-.341,4.578,4.578,0,0,1,2.3-.554Q61.856,3,63.928,2.739,72.241,1.679,80.6,1.056C90.861.28,101.151-.045,111.439,0A419.248,419.248,0,0,1,156.6,2.62c3.156.357,6.31.747,9.451,1.222,1.283.194,1.88,1.368,2.666,2.323l17.088,20.777,18.665,22.695,3.155,3.836-.8-.332a170.706,170.706,0,0,1,28.369.09c9.05.789,18.249,1.681,27.027,4.129,3.655,1.019,7.462,2.322,10.51,4.649a9.27,9.27,0,0,1,3.875,7.412c.493,8.531.472,17.111.287,25.651-.117,5.443-.333,10.888-.771,16.316a80.9,80.9,0,0,1-1.79,12.842c-.35,1.418-2.54.817-2.19-.6" transform="translate(-2.123 0)" fill="#4a4a4a"/>
        <path id="Path_172226" data-name="Path 172226" d="M75.472,150.114a30.662,30.662,0,1,0,30.662-30.662,30.662,30.662,0,0,0-30.662,30.662" transform="translate(88.723 -24.77)" fill="#8b8b8e"/>
        <path id="Path_172227" data-name="Path 172227" d="M76.386,149.823a29.44,29.44,0,1,0,.352-4.618,29.805,29.805,0,0,0-.352,4.618,1.136,1.136,0,0,1-2.271,0,31.821,31.821,0,1,1,.391,4.955,33.783,33.783,0,0,1-.391-4.955,1.136,1.136,0,0,1,2.271,0" transform="translate(88.945 -24.479)" fill="#4a4a4a"/>
        <path id="Path_172228" data-name="Path 172228" d="M238.6,150.114a30.662,30.662,0,1,0,30.662-30.662A30.662,30.662,0,0,0,238.6,150.114" transform="translate(-203.702 -24.77)" fill="#8b8b8e"/>
        <path id="Path_172229" data-name="Path 172229" d="M239.511,149.823a29.44,29.44,0,1,0,.352-4.618,29.805,29.805,0,0,0-.352,4.618,1.136,1.136,0,0,1-2.271,0,31.821,31.821,0,1,1,.391,4.955,33.785,33.785,0,0,1-.391-4.955,1.136,1.136,0,0,1,2.271,0" transform="translate(-203.479 -24.479)" fill="#4a4a4a"/>
        <path id="Path_172230" data-name="Path 172230" d="M15.2,146.58H32.313a29.539,29.539,0,0,1,12.453-23.818,39.242,39.242,0,0,1,26.6-6.6,41.91,41.91,0,0,1,21.362,9.57c6.681,5.617,9.8,13.287,10.03,21.8,10.063.7,20.146.895,30.233.918,5.369.012,10.739-.029,16.111-.059q4.11-.024,8.222-.035a19.782,19.782,0,0,1,2.448.032c.819-19.586,18.874-34.342,38.478-32.3,16.069,1.676,31.315,13.751,31.941,30.482h44.528a1.068,1.068,0,0,1,0,2.135H229.151a1.077,1.077,0,0,1-1.068-1.067c0-16.27-14.6-27.522-29.835-29.416-18.886-2.349-36.4,12.654-36.38,31.585a1.079,1.079,0,0,1-1.607.922c-1.39-.766-4.124-.238-5.693-.232q-4.092.013-8.184.041c-4.907.029-9.814.052-14.72.04-9.993-.022-19.986-.255-29.952-.984a1.086,1.086,0,0,1-1.068-1.068c0-8.546-2.978-15.61-9.427-21.293a39.6,39.6,0,0,0-19.568-8.9c-8.174-1.328-17.376,1.084-24.363,5.308-8.53,5.158-12.875,14.2-12.864,23.995a1.076,1.076,0,0,1-1.068,1.067H15.2a1.068,1.068,0,0,1,0-2.135" transform="translate(-1.637 -24.034)" fill="#3d7cc0"/>
        <path id="Path_172231" data-name="Path 172231" d="M14.923,145.16H32.036L30.9,146.3a31.667,31.667,0,0,1,6.3-18.335,34.34,34.34,0,0,1,17.062-11.538,40.914,40.914,0,0,1,40.945,10.028c5.508,5.577,8.16,13.056,8.408,20.8l-1.136-1.136c9.635.662,19.294.877,28.95.914,4.707.017,9.413-.008,14.12-.036q3.564-.021,7.127-.039c2.246-.01,4.581-.2,6.817.016l-1.136,1.135c.669-14.133,10.111-26.351,23.254-31.309,13.415-5.06,29.237-1.4,39.572,8.4a31,31,0,0,1,9.865,21.092l-1.136-1.136h41.422c1.324,0,3.485-.43,4.57.555a2.287,2.287,0,0,1,.549,2.464c-.518,1.349-1.788,1.388-3.048,1.388H232.5c-1.466,0-3.829.5-5.055-.541-1.02-.868-.755-2.342-.839-3.532a24.162,24.162,0,0,0-.709-4.334,27.168,27.168,0,0,0-8.488-13.444c-8.077-7.15-19.955-10.569-30.515-8.027a31.925,31.925,0,0,0-22.653,20.516,29.333,29.333,0,0,0-1.481,7.87c-.055,1.159.124,2.419-.918,3.2-1.179.878-2.143.076-3.369-.066a26.208,26.208,0,0,0-3.893.147c-1.967.07-3.947.022-5.915.033q-5.847.033-11.695.055c-7.891.017-15.782-.032-23.668-.333-3.866-.147-7.757-.279-11.61-.632a2.362,2.362,0,0,1-2.422-1.921c-.269-1.558-.113-3.215-.338-4.8-1.9-13.285-13.694-21.739-26.172-24.292a34.348,34.348,0,0,0-19.342,2c-5.747,2.242-10.9,5.812-14.16,11.136a26.759,26.759,0,0,0-3.213,7.907,28.511,28.511,0,0,0-.657,4.17c-.1,1.263.226,3.087-.648,4.115-1,1.172-2.91.773-4.256.773H15.961a3.807,3.807,0,0,1-2.272-.377c-1.856-1.281-.743-3.821,1.234-4.03,1.452-.154,1.441,2.119,0,2.271.319-.033-.045-.107,0-.136a5.22,5.22,0,0,1,1.556,0H30.225c.639,0,2.4.326,2.787-.318.266-.447.061-1.76.105-2.3a29.561,29.561,0,0,1,5.2-14.757,30.369,30.369,0,0,1,13.165-10.1A37.49,37.49,0,0,1,69.7,116.707c11.53,1.164,23.782,7.653,28.965,18.4a27.847,27.847,0,0,1,2.4,7.661,34.143,34.143,0,0,1,.417,4.252,3.683,3.683,0,0,0,.019.818c.268.553,1,.421,1.481.454q1.547.1,3.094.195c7.4.431,14.8.614,22.21.666,7.475.052,14.95-.014,22.425-.052,1.5-.008,3.008.04,4.505-.058a17.193,17.193,0,0,1,3.9-.035,4.6,4.6,0,0,1,.913.227c.374.143.316.208.451.074a8.806,8.806,0,0,0,.052-1.959,33.183,33.183,0,0,1,.5-3.844,33.646,33.646,0,0,1,17.5-23.087,35.125,35.125,0,0,1,29.594-.989c9.283,3.783,17.394,11.176,19.959,21.124a27.9,27.9,0,0,1,.69,3.84q.1.918.141,1.841c.018.435-.074.621.247.9.391.344,1.286.155,1.78.155h41.682c.424,0,.873-.042,1.294,0,.16.017.6.069.518.136a4.955,4.955,0,0,1-1.035,0H229.913a1.157,1.157,0,0,1-1.135-1.135c-.607-13.794-11.657-24.4-24.41-28.078a34.806,34.806,0,0,0-35.569,10,32.167,32.167,0,0,0-8.169,19.9,1.147,1.147,0,0,1-1.136,1.136c-2.154-.2-4.4-.026-6.56-.017q-3.566.014-7.132.038c-4.791.029-9.581.055-14.372.037-9.657-.036-19.315-.252-28.95-.913a1.163,1.163,0,0,1-1.136-1.136,28.448,28.448,0,0,0-6.262-17.577,38.282,38.282,0,0,0-17.459-11.185c-12.57-4.013-27.914-.946-37.019,8.927A29.085,29.085,0,0,0,33.172,146.3a1.154,1.154,0,0,1-1.135,1.135H14.923a1.136,1.136,0,0,1,0-2.271" transform="translate(-1.361 -23.749)"/>
        <path id="Path_172232" data-name="Path 172232" d="M163.857,153.916l.385-.335q.093-.087.181-.176a7.4,7.4,0,0,0,2.176-5.273,24.759,24.759,0,0,1,7.44-17.574,26.47,26.47,0,0,1,21.743-7.643C207.521,124.375,220,132.952,220,145.972a7.484,7.484,0,0,0,7.475,7.475h45.566a7.476,7.476,0,0,0,0-14.952H234.117a36.788,36.788,0,0,0-11.492-19.238,45.123,45.123,0,0,0-25.388-11.21,41.517,41.517,0,0,0-4.3-.224c-19.7,0-36.678,14.086-40.482,32.466q-2.535.01-5.067.025l-2.5.015c-3.868.023-7.735.046-11.6.046l-1.958,0c-9.554-.021-17.32-.2-24.414-.575a33.978,33.978,0,0,0-11.737-20.644,48.242,48.242,0,0,0-24.7-11.023,41.9,41.9,0,0,0-5.147-.313,45.282,45.282,0,0,0-25.99,8.071A35.721,35.721,0,0,0,24.9,138.5H13.523a7.476,7.476,0,0,0,0,14.952H31.678a7.487,7.487,0,0,0,7.475-7.485c-.01-8,3.553-14.742,9.771-18.5a32.685,32.685,0,0,1,16.386-4.75,22.693,22.693,0,0,1,3.633.283,33.393,33.393,0,0,1,16.36,7.383c4.949,4.361,7.254,9.6,7.254,16.485a7.454,7.454,0,0,0,7.008,7.458c8.985.657,18.644.975,30.406,1l2.624,0q6.073,0,12.149-.044l1.333-.008q3.417-.02,6.834-.033c.654,0,8.373.532,10.945-1.323" transform="translate(0.039 -22.357)" fill="#d1d1d1"/>
        <path id="Path_172233" data-name="Path 172233" d="M162.776,152.836a6.972,6.972,0,0,0,1.836-2.319,11.974,11.974,0,0,0,.633-4.394,25.356,25.356,0,0,1,1.813-7.8,27.444,27.444,0,0,1,9.837-12.114c8.587-5.934,19.374-6.114,28.684-1.824,8.357,3.851,15.007,11.406,15.275,20.916.107,3.817,2.67,6.706,6.6,6.733,1.379.01,2.758,0,4.138,0h36.166c1.531,0,3.062.006,4.593,0a6.346,6.346,0,1,0,.289-12.681c-1.421-.023-2.844,0-4.264,0H233.838a1.152,1.152,0,0,1-1.095-.834c-3.532-15.323-17.161-26.177-32.229-29.083a40.939,40.939,0,0,0-37.239,11.928,39.331,39.331,0,0,0-10,18.948,1.149,1.149,0,0,1-1.1.834c-15.182.061-30.373.3-45.543-.491a1.155,1.155,0,0,1-1.095-.834,33.7,33.7,0,0,0-8.924-17.806,45.974,45.974,0,0,0-18.736-11.3c-14.008-4.464-30.736-1.458-41.637,8.667a35.139,35.139,0,0,0-10.524,19.138,1.146,1.146,0,0,1-1.1.834c-3.782,0-7.574-.074-11.355,0a6.341,6.341,0,1,0,.166,12.681c4.447.036,8.894,0,13.341,0,1.533,0,3.071.037,4.6,0a6.472,6.472,0,0,0,5.147-2.6c1.43-1.965,1.115-4.2,1.355-6.476a22.951,22.951,0,0,1,3.958-10.947,23.353,23.353,0,0,1,9.594-7.578,33.087,33.087,0,0,1,13.379-3.13,32.53,32.53,0,0,1,14,3.416c7.493,3.565,13.286,9.875,14.379,18.289.265,2.038-.08,4.3.786,6.211a6.389,6.389,0,0,0,4.306,3.521,36.359,36.359,0,0,0,6.493.523q3.308.185,6.618.31c8.645.329,17.3.361,25.947.331,4.4-.015,8.8-.048,13.2-.068,2.82-.013,5.652.185,8.466-.082a8.662,8.662,0,0,0,4.008-1.094c1.217-.816,2.356,1.15,1.146,1.961-2.509,1.683-6.246,1.576-9.141,1.544q-5.063-.055-10.123-.027c-9.065.052-18.132.109-27.195-.1-4.809-.113-9.617-.3-14.419-.59-4.06-.247-8.092-.332-10.638-4.008a9.611,9.611,0,0,1-1.5-5.506,22.224,22.224,0,0,0-1.045-6.456,20.441,20.441,0,0,0-7.811-10.107A33.1,33.1,0,0,0,68.6,123.85a28.142,28.142,0,0,0-15.28,2.217,21.3,21.3,0,0,0-10.248,8.194,20.313,20.313,0,0,0-2.45,5.99c-.52,2.2-.4,4.373-.694,6.583a8.718,8.718,0,0,1-8.53,7.472c-1.539.035-3.082,0-4.62,0-4.491,0-8.99.079-13.48,0a8.623,8.623,0,0,1-7.927-5.184A8.771,8.771,0,0,1,7.8,139.007c2.1-1.7,4.5-1.925,7.073-1.925h9.749l-1.095.834a37.245,37.245,0,0,1,9.327-18.369,41.778,41.778,0,0,1,19.173-11.327A47.624,47.624,0,0,1,96.192,118.5a35.67,35.67,0,0,1,11.536,20.723l-1.1-.834c15.17.788,30.36.551,45.543.49l-1.095.834a42.561,42.561,0,0,1,25.049-29.932c14.675-6.2,31.969-3.418,44.483,6.283a38.946,38.946,0,0,1,14.321,21.855l-1.1-.834h31.619c4.134,0,9.5-.836,12.883,2.035a8.8,8.8,0,0,1,1.082,12.043,8.936,8.936,0,0,1-7.23,3.145H238.208c-3.661,0-7.332.078-10.992,0a8.716,8.716,0,0,1-8.544-7.475c-.323-2.447-.27-4.753-1.083-7.136a19.606,19.606,0,0,0-3.556-6.214c-6.241-7.437-17.271-11.426-26.787-9.331a25.915,25.915,0,0,0-14.489,8.932,23.836,23.836,0,0,0-4.111,7.456c-.9,2.724-.96,5.35-1.236,8.162a8.713,8.713,0,0,1-3.029,5.741c-1.1.957-2.71-.644-1.606-1.606" transform="translate(0.317 -22.08)" fill="#4a4a4a"/>
        <path id="Path_172234" data-name="Path 172234" d="M111.027,143.084c7.57,0,16.656,9.337,12.365,18.422a13.881,13.881,0,0,1-18.675,6.309c-15.394-7.823-6.813-24.731,6.309-24.731" transform="translate(84.366 -29.67)" fill="#ccc"/>
        <path id="Path_172235" data-name="Path 172235" d="M110.7,141.652c6.428.079,12.517,5.346,14.161,11.448,1.829,6.785-2.493,13.539-8.809,15.994-6.141,2.387-13.1.287-17.516-4.459a12.549,12.549,0,0,1-2.147-14.224,16.088,16.088,0,0,1,14.312-8.759,1.136,1.136,0,0,1,0,2.271A13.9,13.9,0,0,0,99.365,149.8a10.416,10.416,0,0,0-.535,11.537,14.249,14.249,0,0,0,13.839,6.343c5.644-.958,10.62-5.816,10.349-11.791-.276-6.07-6.229-11.886-12.321-11.962a1.136,1.136,0,0,1,0-2.271" transform="translate(84.695 -29.373)" fill="#4a4a4a"/>
        <path id="Path_172236" data-name="Path 172236" d="M274.151,143.084c7.57,0,16.656,9.337,12.365,18.422a13.881,13.881,0,0,1-18.674,6.309c-15.395-7.823-6.815-24.731,6.309-24.731" transform="translate(-208.057 -29.67)" fill="#ccc"/>
        <path id="Path_172237" data-name="Path 172237" d="M273.821,141.652c6.428.079,12.517,5.346,14.161,11.448,1.829,6.786-2.493,13.539-8.809,15.994-6.141,2.387-13.1.286-17.517-4.459a12.55,12.55,0,0,1-2.147-14.224,16.089,16.089,0,0,1,14.313-8.759,1.136,1.136,0,0,1,0,2.271,13.9,13.9,0,0,0-11.332,5.874,10.415,10.415,0,0,0-.534,11.537,14.249,14.249,0,0,0,13.839,6.343c5.643-.958,10.62-5.816,10.349-11.791-.276-6.07-6.229-11.886-12.321-11.962a1.136,1.136,0,0,1,0-2.271" transform="translate(-207.727 -29.373)" fill="#4a4a4a"/>
        <path id="Path_172238" data-name="Path 172238" d="M198.543,74.873c-.262,4.795-1.045,9.589-1.305,14.132-7.571,4.291-15.143,8.833-21.931,14.637-5.744,4.8-16.97,18.388-16.97,18.388l-30.287-.47c0-13.091-.01-10.751.522-46.985Z" transform="translate(-14.7 -15.464)" fill="#d1d1d1"/>
        <path id="Path_172239" data-name="Path 172239" d="M199.392,74.571c-.178,3.1-.555,6.177-.882,9.261-.147,1.375-.282,2.752-.376,4.132-.05.717-.014,1.264-.619,1.736a15.907,15.907,0,0,1-1.867,1.064,159.418,159.418,0,0,0-14.325,9.066,74.362,74.362,0,0,0-9.673,8.281c-2.658,2.727-5.2,5.568-7.7,8.439q-2.43,2.789-4.8,5.631c-.718.862-1.593.694-2.621.678l-15.611-.243-13.173-.2a1.173,1.173,0,0,1-1.155-1.156c0-3.817,0-7.635.028-11.454.045-5.548.135-11.1.216-16.643q.138-9.444.278-18.889a1.173,1.173,0,0,1,1.155-1.155l6.963.03,16.72.071,20.224.086,17.408.075c2.834.012,5.7-.1,8.532.036.041,0,.083,0,.124,0a1.156,1.156,0,0,1,0,2.31l-6.963-.029-16.72-.071-20.224-.086-17.408-.074-5.8-.025a18.607,18.607,0,0,1-2.733-.012.932.932,0,0,0-.124,0l1.156-1.156q-.206,13.979-.407,27.957c-.054,4.018-.1,8.036-.11,12.054q-.008,3.487,0,6.974l-1.155-1.155,26.48.411,3.807.059-.817.338q4.192-5.073,8.615-9.954c2.156-2.383,4.348-4.749,6.691-6.949a82.641,82.641,0,0,1,9.711-7.638c4.547-3.138,9.314-5.94,14.117-8.664l-.572,1c.285-4.724,1.034-9.406,1.305-14.132.085-1.478,2.4-1.488,2.311,0" transform="translate(-14.393 -15.162)" fill="#4a4a4a"/>
        <path id="Path_172240" data-name="Path 172240" d="M198.609,53.1a415.343,415.343,0,0,0-26.5-36.44A255.021,255.021,0,0,0,128.96,14.9V52.6c24.775.753,50.975.758,69.649.5" transform="translate(-15.487 -3.031)" fill="#fff"/>
        <path id="Path_172241" data-name="Path 172241" d="M197.3,53.373a410.05,410.05,0,0,0-26.32-36.21l.8.333a257.1,257.1,0,0,0-33.326-2.043c-3.278.013-6.554.1-9.826.284l1.136-1.136V52.295l-1.136-1.136c18.745.568,37.5.729,56.255.629q6.7-.036,13.394-.124a1.137,1.137,0,0,1,0,2.272q-26.549.357-53.1-.11-8.274-.147-16.546-.395a1.156,1.156,0,0,1-1.136-1.136V14.6a1.159,1.159,0,0,1,1.136-1.135,236.569,236.569,0,0,1,34.154.793q3.8.339,7.6.792c.462.055.944.086,1.4.174.774.151,1.062.654,1.54,1.249q1.588,1.981,3.158,3.976,5.776,7.345,11.269,14.91c3.991,5.516,7.845,11.131,11.511,16.868.789,1.235-1.175,2.376-1.961,1.146" transform="translate(-15.154 -2.73)" fill="#4a4a4a"/>
        <path id="Path_172242" data-name="Path 172242" d="M231.831,53.176c7.571-11.861,20.82-24.227,30.662-36.44a218.865,218.865,0,0,1,39.872-1.415s-.869,37.214-.886,37.35c-24.774.753-50.973.758-69.648.5" transform="translate(-200.783 -3.106)" fill="#fff"/>
        <path id="Path_172243" data-name="Path 172243" d="M230.582,52.306c6.1-9.506,14.107-17.677,21.644-26.027,1.9-2.111,3.8-4.233,5.649-6.389q1.358-1.581,2.682-3.191c.394-.48.755-1.142,1.366-1.355a11.423,11.423,0,0,1,2.258-.281q8.484-1,17.031-1.343,10.44-.417,20.885.169a1.153,1.153,0,0,1,1.136,1.135q-.146,6.29-.295,12.578Q302.7,37.65,302.463,47.7c-.037,1.552,0,3.128-.117,4.677a1.163,1.163,0,0,1-1.136,1.136c-18.744.567-37.5.729-56.254.629q-6.7-.036-13.394-.124a1.137,1.137,0,0,1,0-2.272q26.549.357,53.1-.109,8.273-.147,16.545-.395l-1.135,1.135c.315-4.2.207-8.469.307-12.674q.237-10.034.472-20.068.053-2.3.108-4.608L302.1,16.16a219.22,219.22,0,0,0-39.872,1.415l.8-.333c-7.865,9.735-16.859,18.491-24.7,28.246a92.6,92.6,0,0,0-5.787,7.964c-.786,1.226-2.754.089-1.961-1.146" transform="translate(-200.514 -2.809)" fill="#4a4a4a"/>
        <path id="Path_172244" data-name="Path 172244" d="M189.682,83.935c3.524-.881,12.337,0,13.316,1.893.782,1.7-5.092,1.7-6.267,1.7-3.916.189-16.252.378-7.048-3.6" transform="translate(-65.432 -17.334)" fill="#ccc" stroke="#ea3382" stroke-width="1"/>
        <path id="Path_172245" data-name="Path 172245" d="M189.117,82.518a18.5,18.5,0,0,1,4.862-.371,31.1,31.1,0,0,1,5.464.624,7.872,7.872,0,0,1,3.863,1.615,1.916,1.916,0,0,1-.7,3.23,12.391,12.391,0,0,1-4.513.74c-1.033.041-2.068.055-3.1.084a28.691,28.691,0,0,1-7.953-.481c-1.119-.3-2.418-1.076-2.039-2.446.422-1.527,2.57-2.321,3.847-2.876a1.191,1.191,0,0,1,1.581.414,1.165,1.165,0,0,1-.415,1.581,17.2,17.2,0,0,0-2.123,1.057c-.117.071-.23.147-.344.222-.044.029-.086.061-.128.091-.144.106.132-.113.01,0-.071.063-.137.132-.208.193-.194.169.013-.052-.022.024-.081.174.069-.257.032-.086a1.1,1.1,0,0,0-.01-.357c.013.05-.27-.461-.067-.18-.16-.223-.109-.136-.02-.039s.212.094,0,.01a5.111,5.111,0,0,0,.57.181c.212.055.428.1.644.136.118.021.237.04.357.058l.06.009c-.145-.019.149.018.176.02.579.064,1.16.108,1.741.136,1.191.059,2.386.065,3.579.045.905-.015,1.81-.064,2.715-.072a24.478,24.478,0,0,0,3.331-.209c.286-.048.571-.1.851-.175.126-.033.25-.072.373-.111.016-.006.178-.066.053-.015s.094-.05.12-.06a.72.72,0,0,0,.112-.065c.113-.063-.067.143-.044.04,0-.021.063-.057.076-.076a1.047,1.047,0,0,0-.166.285c-.032.092,0,.386.078.411-.053-.017-.151-.145-.194-.181.155.133.055.037-.047-.019s-.194-.113-.294-.165c-.053-.028-.425-.19-.267-.128a12.091,12.091,0,0,0-1.758-.527,26.608,26.608,0,0,0-5.045-.614,16.806,16.806,0,0,0-4.412.282c-1.445.35-2.061-1.877-.614-2.227" transform="translate(-65.175 -17.031)" fill="#4a4a4a"/>
        <path id="Path_172246" data-name="Path 172246" d="M28.943,116.748c4.291,1.183,2.389,15.054.864,16.087-3.432,2.326-16.676,1.2-22.7,0-5.047-1.009-3.841-14.312,1.01-15.646,4.795-1.514,16.147-1.73,20.827-.441" transform="translate(250.714 -24.034)" fill="#ccc"/>
        <path id="Path_172247" data-name="Path 172247" d="M28.949,115.35c2.37.726,3.045,3.451,3.312,5.624a27.452,27.452,0,0,1-.39,8.327A13.056,13.056,0,0,1,31,132.341,3.149,3.149,0,0,1,29.109,134c-2.735,1.112-6.026,1.058-8.926,1.013a84.281,84.281,0,0,1-10.83-.906,11.875,11.875,0,0,1-3.9-.875A5.146,5.146,0,0,1,3.3,130.728a13.774,13.774,0,0,1-.51-8.2c.483-2.354,1.566-5.162,3.809-6.369a14.044,14.044,0,0,1,4.622-1.145,58.248,58.248,0,0,1,6.226-.519,40.08,40.08,0,0,1,11.5.85,1.137,1.137,0,0,1-.6,2.19,33.8,33.8,0,0,0-8.684-.8,49.839,49.839,0,0,0-9.646.775,6.519,6.519,0,0,0-2.7.885A5.789,5.789,0,0,0,5.7,120.72a13.516,13.516,0,0,0-.9,7.027,6.272,6.272,0,0,0,.976,2.794,2.751,2.751,0,0,0,2.077,1.036,75.95,75.95,0,0,0,8.882,1.029,44.558,44.558,0,0,0,9.154-.128,9.433,9.433,0,0,0,2.834-.8c.389-.192.011-.078.015.057,0-.071.136-.207.169-.28a7.631,7.631,0,0,0,.337-.915,24.621,24.621,0,0,0,.887-7.628,13.312,13.312,0,0,0-.514-3.622,2.573,2.573,0,0,0-1.274-1.757c-1.393-.427-.8-2.62.6-2.19" transform="translate(251.01 -23.731)" fill="#4a4a4a"/>
        <path id="Path_172248" data-name="Path 172248" d="M333.557,133.283c-4.291-1.183-2.39-15.054-.864-16.087,3.432-2.326,10.849-1.2,16.871,0,5.048,1.009,3.843,14.313-1.007,15.646a27.326,27.326,0,0,1-15,.441" transform="translate(-329.784 -24.021)" fill="#ccc"/>
        <path id="Path_172249" data-name="Path 172249" d="M332.967,134.08c-1.811-.547-2.669-2.365-3.056-4.082a27.018,27.018,0,0,1,.762-12.3,3.639,3.639,0,0,1,1.009-1.664,7.764,7.764,0,0,1,3.55-1.362,31.642,31.642,0,0,1,10.063.36c2.429.377,5.334.417,6.893,2.591a10.147,10.147,0,0,1,1.477,5.956,15.565,15.565,0,0,1-1.485,6.639,7.383,7.383,0,0,1-1.932,2.53,9.926,9.926,0,0,1-4.275,1.572,28.137,28.137,0,0,1-13.006-.239,1.137,1.137,0,0,1,.6-2.19,25.217,25.217,0,0,0,10.315.508,21.114,21.114,0,0,0,4.257-1,3.32,3.32,0,0,0,1.406-1.19,12.01,12.01,0,0,0,1.3-10.3,3.768,3.768,0,0,0-1-1.531,1.869,1.869,0,0,0-.644-.336c-.673-.192-1.389-.285-2.077-.412a45.09,45.09,0,0,0-9.039-.955,12.815,12.815,0,0,0-3.781.545c-.485.161-.874.456-1.333.65.159-.067.135-.035.194-.184a2.829,2.829,0,0,1-.178.3c-.035.061-.159.363-.062.124-.051.124-.1.251-.139.377-.116.339-.211.684-.3,1.03a22.758,22.758,0,0,0-.466,2.464,24.219,24.219,0,0,0-.109,6.424,9.128,9.128,0,0,0,.6,2.322,3.075,3.075,0,0,0,.519.815.945.945,0,0,0,.25.212c.227.149.018.048.284.128a1.137,1.137,0,0,1-.6,2.19" transform="translate(-329.496 -23.722)" fill="#4a4a4a"/>
        <path id="Path_172250" data-name="Path 172250" d="M16.321,68.676l-1.2,13.881c24.983.252,47.263,1.009,69.472,1.009,0,0,.481-6.442-9.606-9.782s-38.1-7.883-58.667-5.108" transform="translate(188.757 -14.063)" fill="#d1d1d1"/>
        <path id="Path_172251" data-name="Path 172251" d="M17.151,68.365l-1.2,13.881L14.817,81.11c18.237.186,36.469.69,54.705.912q7.383.089,14.767.1l-1.136,1.136c.01-.151,0-.3-.008-.453,0-.077-.013-.153-.021-.23-.014-.147.045.22-.017-.1-.048-.247-.1-.49-.168-.732a8.262,8.262,0,0,0-2.206-3.568c-3.1-3.061-7.65-4.125-11.758-5.1a170.865,170.865,0,0,0-32.648-4.306,118.152,118.152,0,0,0-20.312.734c-.613.082-1.13-.581-1.135-1.136a1.164,1.164,0,0,1,1.135-1.136c12.42-1.653,25.192-.863,37.569.788,5.193.693,10.372,1.554,15.475,2.744,4.435,1.034,9.129,2.2,12.658,5.237,1.97,1.695,3.9,4.507,3.706,7.257a1.158,1.158,0,0,1-1.135,1.136c-17.761,0-35.516-.475-53.272-.782q-8.1-.14-16.2-.228a1.144,1.144,0,0,1-1.136-1.135q.6-6.941,1.2-13.881c.124-1.445,2.4-1.458,2.271,0" transform="translate(189.062 -13.751)" fill="#4a4a4a"/>
        <path id="Path_172252" data-name="Path 172252" d="M339.92,107.193c-2.1-.254-1.863-2.735-1.83-4.424h6.841c-.692,2.4-2,4.789-5.011,4.424" transform="translate(-327.555 -21.31)" fill="#fff"/>
        <path id="Path_172253" data-name="Path 172253" d="M344.7,98.641h-7.28v-.575c0-1.4-.05-2.828-.063-4.252h7.332a23.062,23.062,0,0,1,.01,4.826" transform="translate(-326.878 -19.454)" fill="#fd683e"/>
        <path id="Path_172254" data-name="Path 172254" d="M344.922,89.514h-6.927c.03-.794.085-1.584.186-2.366.3-2.344.587-3.083,2.781-3.123,2.49.183,3.448,3.145,3.959,5.489" transform="translate(-327.489 -17.424)" fill="#fff"/>
        <path id="Path_172255" data-name="Path 172255" d="M334.6,95.894c0-3.748-.249-7.57.447-11.268.508-2.7,2.12-3.37,4.49-3.457.09,0,.176-.008.267-.009.122.009.235.033.354.049,4.02.545,5.41,5.036,6.083,8.544a27.516,27.516,0,0,1,.039,7.444,1.307,1.307,0,0,1-.028.258c-.97,4.6-3.813,8.619-9.022,7.275-3.391-.877-2.63-6.345-2.63-8.836m4.1,6.819c3.006.364,4.319-2.03,5.01-4.424h-6.84c-.033,1.688-.272,4.169,1.83,4.424M339.8,83.43c-2.193.041-2.477.779-2.781,3.124-.1.782-.156,1.573-.186,2.365h6.927c-.51-2.343-1.47-5.3-3.959-5.489M336.87,95.442v.575h7.28a23.114,23.114,0,0,0-.01-4.826h-7.332c.012,1.424.063,2.848.063,4.252" transform="translate(-326.329 -16.83)" fill="#4a4a4a"/>
        <path id="Path_172256" data-name="Path 172256" d="M133.991,131.2c-4.889-5.911-11.034-10.362-18.6-12.053a34.265,34.265,0,0,0-24.1,3.245,26.7,26.7,0,0,0-9.455,8.578c-.8,1.221-2.762.083-1.961-1.146,9.4-14.44,30.868-17.631,45.306-9.313A38.973,38.973,0,0,1,135.6,129.6c.925,1.118-.673,2.734-1.606,1.606" transform="translate(86.309 -24.053)" fill="#fff"/>
        <path id="Path_172257" data-name="Path 172257" d="M296.2,131.2c-4.889-5.911-11.033-10.362-18.6-12.053a34.265,34.265,0,0,0-24.1,3.245,26.718,26.718,0,0,0-9.455,8.578c-.794,1.221-2.762.083-1.961-1.146,9.4-14.439,30.868-17.631,45.306-9.313A38.973,38.973,0,0,1,297.8,129.6c.925,1.118-.673,2.734-1.606,1.606" transform="translate(-204.471 -24.053)" fill="#fff"/>
        <path id="Path_172258" data-name="Path 172258" d="M84.987,76.318a176.05,176.05,0,0,0-36.214-1.154c-1.456.12-1.448-2.151,0-2.271a176,176,0,0,1,36.214,1.154c1.432.178,1.45,2.451,0,2.271" transform="translate(161.477 -15.016)" fill="#fff"/>
        <path id="Path_172259" data-name="Path 172259" d="M132.764,179.477a15.953,15.953,0,0,1-10.41-6.624" transform="translate(55.595 -35.843)" fill="#333"/>
        <path id="Path_172260" data-name="Path 172260" d="M132.2,180.285a17,17,0,0,1-11.089-7.146c-.791-1.234,1.174-2.374,1.962-1.146a14.807,14.807,0,0,0,9.731,6.1,1.146,1.146,0,0,1,.793,1.4,1.158,1.158,0,0,1-1.4.793" transform="translate(55.856 -35.555)" fill="#4a4a4a"/>
        <path id="Path_172261" data-name="Path 172261" d="M139.378,184.948c-6.246-1.7-15.709-7.571-17.98-14.006" transform="translate(49.738 -35.447)" fill="#4a4a4a"/>
        <path id="Path_172262" data-name="Path 172262" d="M138.853,185.762a34.329,34.329,0,0,1-10.966-5.5c-3.27-2.409-6.387-5.406-7.807-9.3-.5-1.375,1.692-1.968,2.19-.6,1.257,3.447,4.28,6.176,7.193,8.254a32.453,32.453,0,0,0,9.994,4.96,1.137,1.137,0,0,1-.6,2.19" transform="translate(49.961 -35.166)" fill="#4a4a4a"/>
        <path id="Path_172263" data-name="Path 172263" d="M294.971,180.91a15.953,15.953,0,0,1-10.41-6.624" transform="translate(-235.184 -36.14)" fill="#333"/>
        <path id="Path_172264" data-name="Path 172264" d="M294.406,181.718a17,17,0,0,1-11.088-7.146c-.791-1.234,1.174-2.374,1.961-1.146a14.807,14.807,0,0,0,9.731,6.1,1.146,1.146,0,0,1,.793,1.4,1.158,1.158,0,0,1-1.4.793" transform="translate(-234.921 -35.853)" fill="#4a4a4a"/>
        <path id="Path_172265" data-name="Path 172265" d="M301.587,186.381c-6.246-1.7-15.709-7.57-17.982-14.006" transform="translate(-241.042 -35.744)" fill="#4a4a4a"/>
        <path id="Path_172266" data-name="Path 172266" d="M301.061,187.194a34.319,34.319,0,0,1-10.966-5.5c-3.27-2.409-6.387-5.406-7.808-9.3-.5-1.375,1.692-1.968,2.19-.6,1.258,3.446,4.281,6.176,7.193,8.253a32.439,32.439,0,0,0,10,4.96,1.137,1.137,0,0,1-.6,2.19" transform="translate(-240.818 -35.463)" fill="#4a4a4a"/>
        <path id="Path_172267" data-name="Path 172267" d="M117.2,153.556a10.043,10.043,0,0,0-5.56-2.931,8.268,8.268,0,0,0-6.438.918c-1.206.831-2.344-1.137-1.147-1.961,2.32-1.6,5.33-1.719,8.011-1.183a12.1,12.1,0,0,1,6.74,3.552c.95,1.1-.65,2.716-1.606,1.606" transform="translate(84.176 -30.713)" fill="#fff"/>
        <path id="Path_172268" data-name="Path 172268" d="M279.961,153.556a10.043,10.043,0,0,0-5.56-2.931,8.27,8.27,0,0,0-6.439.918c-1.206.831-2.343-1.137-1.146-1.961,2.32-1.6,5.329-1.719,8.011-1.183a12.1,12.1,0,0,1,6.74,3.552c.95,1.1-.65,2.716-1.606,1.606" transform="translate(-207.602 -30.713)" fill="#fff"/>
        <path id="Path_172269" data-name="Path 172269" d="M25.123,126.478a18.163,18.163,0,0,1,.008-2.892c.01-.147,0-.3.021-.445.031-.257-.06-.166,0-.143.1.04.2.321.208.316a4.939,4.939,0,0,1-.705-.247,21.5,21.5,0,0,0-6.062-.9c-3.218-.08-6.358.43-9.554.625-1.46.09-1.454-2.182,0-2.271,3.724-.227,7.363-.827,11.113-.55a25.956,25.956,0,0,1,3.389.461,9.44,9.44,0,0,1,3.093,1,2.008,2.008,0,0,1,.791,1.856,27.632,27.632,0,0,0-.026,3.2c.136,1.454-2.136,1.446-2.271,0" transform="translate(251.625 -24.861)" fill="#fff"/>
        <path id="Path_172270" data-name="Path 172270" d="M347.565,125.62a30.38,30.38,0,0,0-.126-3.155l1.135,1.136a104.878,104.878,0,0,0-12.366-1.009,1.137,1.137,0,0,1,0-2.272,104.876,104.876,0,0,1,12.366,1.01,1.18,1.18,0,0,1,1.135,1.135,30.362,30.362,0,0,1,.126,3.155,1.136,1.136,0,0,1-2.27,0" transform="translate(-330.116 -24.95)" fill="#fff"/>
        <path id="Path_172271" data-name="Path 172271" d="M124.575,64.19l-9.943-3.744-1.9,4.848,9.789,2.956s5.185.044,2.055-4.06" transform="translate(70.406 -12.534)" fill="#24c8c9"/>
        <path id="Path_172272" data-name="Path 172272" d="M124.049,64.983l-8.688-3.271-1.255-.472,1.4-.793-1.9,4.848-.793-1.4,6.558,1.981c1.018.307,2.064.569,3.066.926.082.029.317.067.014.029-.323-.041,0-.02.085-.028s.157-.011.235-.017c.058,0,.354-.044.14-.013s.116-.021.177-.034c.142-.028.282-.06.421-.1.078-.023.432-.155.287-.092s.188-.109.258-.147a1.082,1.082,0,0,0,.12-.082c-.319.231.021,0,.01-.037-.033-.1-.061.23-.024.034.014-.075.193-.243.015.013a.42.42,0,0,0,.053-.181c.017-.085.013-.05-.011.105a1.5,1.5,0,0,0,0-.169c-.01-.048-.027-.221.013.028a2.99,2.99,0,0,0-.071-.3,5.064,5.064,0,0,0-.791-1.351,1.143,1.143,0,0,1,.407-1.554,1.163,1.163,0,0,1,1.554.407c1.129,1.511,1.817,3.689-.014,4.965a5.238,5.238,0,0,1-2.968.8,9.493,9.493,0,0,1-2.328-.636l-4.692-1.416-3.124-.943a1.144,1.144,0,0,1-.793-1.4q.951-2.424,1.9-4.849a1.153,1.153,0,0,1,1.4-.793l8.688,3.271,1.255.472a1.167,1.167,0,0,1,.793,1.4,1.144,1.144,0,0,1-1.4.793" transform="translate(70.63 -12.232)" fill="#4a4a4a"/>
        <path id="Path_172273" data-name="Path 172273" d="M123.568,64.428c.173-3.278,1-18.815,1-18.815,14.573,1.234,12.119,20.571-1,18.815" transform="translate(52.907 -9.458)" fill="#24c8c9"/>
        <path id="Path_172274" data-name="Path 172274" d="M122.123,64.124q.5-9.407,1-18.815a1.168,1.168,0,0,1,1.156-1.156c4.913.451,9.535,3.151,10.765,8.2a10.721,10.721,0,0,1-4.1,11.249,10.961,10.961,0,0,1-7.663,1.672,1.194,1.194,0,0,1-1.155-1.155,1.161,1.161,0,0,1,1.155-1.155c3.779.476,7.475-.941,9.065-4.585a8.4,8.4,0,0,0-1.635-9.2,10.312,10.312,0,0,0-6.432-2.723l1.155-1.155q-.5,9.407-1,18.815c-.078,1.479-2.39,1.489-2.311,0" transform="translate(53.196 -9.155)" fill="#4a4a4a"/>
      </g>
    </g>
  </g>
</svg>
